<?xml version="1.0" standalone="no"?><!DOCTYPE svg PUBLIC "-//W3C//DTD SVG 1.1//EN" "http://www.w3.org/Graphics/SVG/1.1/DTD/svg11.dtd"><svg t="1769181004998" class="icon" viewBox="0 0 1024 1024" version="1.1" xmlns="http://www.w3.org/2000/svg" p-id="20576" xmlns:xlink="http://www.w3.org/1999/xlink" width="200" height="200"><path d="M512.228 338.83c20.478 0 37.076 16.066 37.076 35.823v160.402a70.098 70.098 0 0 1 26.396 25.597 69.878 69.878 0 0 1 9.777 35.403c-0.001 39.047-32.841 70.775-73.249 70.775-40.409 0-73.248-31.75-73.248-70.768a69.896 69.896 0 0 1 9.777-35.406 70.116 70.116 0 0 1 26.396-25.601V374.653c0-19.757 16.625-35.823 37.075-35.823z m-13.981 211.408a9.402 9.402 0 0 0-6.988-1.141c-17.708 3.865-30.061 18.851-30.061 36.399a9.287 9.287 0 0 0 2.82 6.408 9.336 9.336 0 0 0 13 0 9.29 9.29 0 0 0 2.819-6.408 19.524 19.524 0 0 1 4.468-12.142 19.61 19.61 0 0 1 11.089-6.702h0.065a9.1 9.1 0 0 0 5.707-3.926 9.057 9.057 0 0 0 1.277-6.798 9.36 9.36 0 0 0-4.196-5.69z" p-id="20577" fill="#ffffff"></path><path d="M293.505 537.377a218.62 218.62 0 0 0 2.674 17.015L248.11 563.9a267.902 267.902 0 0 1-3.272-20.823l48.667-5.7zM778.161 543.077a267.902 267.902 0 0 1-3.272 20.823l-48.068-9.508a218.62 218.62 0 0 0 2.674-17.015l48.666 5.7zM292.167 502.836a224.319 224.319 0 0 0 0 17.328l-48.963 1.892a274.018 274.018 0 0 1-0.007-20.935l0.007-0.178 48.963 1.893zM779.795 500.943c0.135 3.502 0.205 7.022 0.205 10.557s-0.07 7.054-0.205 10.556l-48.962-1.892a224.319 224.319 0 0 0 0-17.328l48.962-1.893zM613.248 474.601a6.746 6.746 0 0 1 4.623 2.043 6.712 6.712 0 0 1 0 9.351 6.747 6.747 0 0 1-4.623 2.044H572.84a6.745 6.745 0 0 1-4.622-2.044 6.714 6.714 0 0 1 0-9.351 6.744 6.744 0 0 1 4.622-2.043h40.408zM296.179 468.608a218.62 218.62 0 0 0-2.674 17.015l-48.667-5.701a267.902 267.902 0 0 1 3.272-20.823l48.069 9.509zM774.889 459.099a267.902 267.902 0 0 1 3.272 20.823l-48.666 5.701a218.62 218.62 0 0 0-2.674-17.015l48.068-9.509zM593.044 445.212a6.747 6.747 0 0 1 4.623 2.044 6.715 6.715 0 0 1 0 9.351 6.746 6.746 0 0 1-4.623 2.043H572.84a6.744 6.744 0 0 1-4.622-2.043 6.712 6.712 0 0 1 0-9.351 6.745 6.745 0 0 1 4.622-2.044h20.204zM305.497 435.507a217.57 217.57 0 0 0-5.312 16.359l-47.166-13.278a265.913 265.913 0 0 1 6.509-20.046l45.969 16.965zM763.471 418.542a265.913 265.913 0 0 1 6.509 20.046l-23.582 6.64-0.001-0.001-23.582 6.639a217.57 217.57 0 0 0-5.312-16.359l45.968-16.965zM613.248 415.824c1.786 0 3.498 0.708 4.761 1.967a6.709 6.709 0 0 1 0 9.497 6.744 6.744 0 0 1-4.761 1.967H572.84a6.744 6.744 0 0 1-4.761-1.967 6.712 6.712 0 0 1-1.972-4.748c0-1.781 0.71-3.49 1.972-4.749a6.744 6.744 0 0 1 4.761-1.967h40.408zM319.923 404.265a218.216 218.216 0 0 0-7.831 15.339l-44.487-20.543a267.79 267.79 0 0 1 9.587-18.778l42.731 23.982zM745.807 380.283a267.79 267.79 0 0 1 9.587 18.778l-44.486 20.543a218.216 218.216 0 0 0-7.831-15.339l42.73-23.982zM589.674 386.429a6.753 6.753 0 0 1 4.908 1.888 6.72 6.72 0 0 1 2.053 4.83 6.72 6.72 0 0 1-4.315 6.273 6.753 6.753 0 0 1-2.646 0.447H572.84a6.745 6.745 0 0 1-4.622-2.044 6.714 6.714 0 0 1 0-9.351 6.744 6.744 0 0 1 4.622-2.043h16.834zM339.093 375.629a220.471 220.471 0 0 0-10.151 13.948l-40.717-27.26a269.148 269.148 0 0 1 12.408-17.048l38.46 30.36zM722.366 345.268a269.169 269.169 0 0 1 12.408 17.049l-40.716 27.26a220.471 220.471 0 0 0-10.151-13.948l38.459-30.361zM613.248 357.04a6.747 6.747 0 0 1 4.623 2.044 6.714 6.714 0 0 1 0 9.352 6.755 6.755 0 0 1-4.623 2.043H572.84a6.753 6.753 0 0 1-4.622-2.043 6.716 6.716 0 0 1 0-9.352 6.745 6.745 0 0 1 4.622-2.044h40.408zM362.512 350.307a220.214 220.214 0 0 0-12.205 12.205l-35.974-33.27a270.86 270.86 0 0 1 14.909-14.909l33.27 35.974zM693.757 314.333a270.51 270.51 0 0 1 14.909 14.909l-17.985 16.635-0.001-0.001-17.987 16.636a220.214 220.214 0 0 0-12.205-12.205l33.269-35.974zM389.577 328.942a220.471 220.471 0 0 0-13.948 10.151l-30.361-38.46a269.169 269.169 0 0 1 17.049-12.408l27.26 40.717zM660.682 288.225a269.148 269.148 0 0 1 17.048 12.408l-30.359 38.46a220.471 220.471 0 0 0-13.948-10.151l27.259-40.717zM419.604 312.092a218.216 218.216 0 0 0-15.339 7.831l-23.982-42.731a267.79 267.79 0 0 1 18.778-9.587l20.543 44.487zM623.938 267.605a267.79 267.79 0 0 1 18.778 9.587l-11.989 21.366-0.001-0.001-11.991 21.366a218.216 218.216 0 0 0-15.339-7.831l20.542-44.487zM451.866 300.185a217.57 217.57 0 0 0-16.359 5.312l-16.965-45.969a265.913 265.913 0 0 1 20.046-6.509l13.278 47.166zM584.411 253.019a265.913 265.913 0 0 1 20.046 6.509l-16.964 45.969a217.57 217.57 0 0 0-16.359-5.312l13.277-47.166zM485.623 293.505a218.62 218.62 0 0 0-17.015 2.674l-9.509-48.069a267.902 267.902 0 0 1 20.823-3.272l5.701 48.667zM543.077 244.838a267.902 267.902 0 0 1 20.823 3.272l-9.508 48.069a218.62 218.62 0 0 0-17.015-2.674l5.7-48.667zM511.5 243c3.535 0 7.054 0.069 10.556 0.204l-1.892 48.963a224.319 224.319 0 0 0-17.328 0l-1.893-48.963A274.07 274.07 0 0 1 511.5 243z" p-id="20578" fill="#ffffff"></path><path d="M512 147c201.328 0.619 364.381 163.672 365 365 0 201.581-163.419 365-365 365S147 713.581 147 512s163.419-365 365-365z m0 78.32c-158.327 0-286.68 128.353-286.68 286.68a287.039 287.039 0 0 0 8.857 70.719h147.718a130.12 130.12 0 0 0 260.21 0h147.759A287.058 287.058 0 0 0 798.68 512C798.191 353.877 670.123 225.809 512 225.32z" p-id="20579" fill="#ffffff"></path><path d="M512 0c282.77 0 512 229.23 512 512s-229.23 512-512 512S0 794.77 0 512 229.23 0 512 0z m0 32C246.903 32 32 246.903 32 512s214.903 480 480 480 480-214.903 480-480S777.097 32 512 32z" p-id="20580" fill="#ffffff"></path></svg>